<svg id="Layer_1" data-name="Layer 1" xmlns="http://www.w3.org/2000/svg" viewBox="0 0 253.53029 114.79239">
  <title>sdlc_2blue_Logo</title>
  <g>
    <path d="M28.26678,118.2681q-23.979,0-23.97642-22.19634H9.988q0,8.77241,4.406,12.7632,4.40831,3.99558,13.97847,3.99853a23.57375,23.57375,0,0,0,10.64225-2.11036q5.16239-2.77182,5.16153-8.21139,0-6.65828-10.75167-9.21293-.75135-.22119-10.75026-1.77327Q6.54684,88.972,6.54645,77.09624a13.77038,13.77038,0,0,1,6.45419-12.09491,23.11456,23.11456,0,0,1,13.43818-3.77441q23.11064,0,23.11234,19.75294H43.74767q0-7.543-3.97783-10.92876-3.97973-3.38082-12.79479-3.38377A19.1626,19.1626,0,0,0,16.97667,69.107a8.93734,8.93734,0,0,0-4.73112,7.98922q0,6.66123,10.53642,8.54651,2.79694.55725,11.39773,2.1084Q49.873,90.52311,49.874,102.51174q0,8.43357-7.09474,12.53926-5.69956,3.21714-14.51243,3.2171" transform="translate(-4.29036 -3.47571)" style="fill: #45697d"/>
    <path d="M97.13855,72.26481q-5.80818-6.54637-16.45127-6.5454-9.89348,0-15.59034,6.99161Q59.7174,79.25444,59.72016,89.356q0,10.2087,5.27106,16.53573,5.58817,6.88242,15.69606,6.88051,10.002,0,16.02074-6.88051,5.91388-6.54636,5.913-16.53573,0-10.87521-5.4825-17.09116m5.4825,44.502v-9.76827q-7.20526,10.98993-21.82434,10.98806-12.47338,0-19.67758-8.32247Q54.348,101.788,54.34527,89.356q0-12.65329,6.88147-20.53045,7.20244-8.32147,19.99859-8.32246,14.4048,0,21.39572,10.542V3.47571h5.48242V116.76682Z" transform="translate(-4.29036 -3.47571)" style="fill: #45697d"/>
  </g>
  <rect x="113.85604" width="5.48432" height="113.28915" style="fill: #45697d"/>
  <path d="M177.2832,102.77411a15.13782,15.13782,0,0,1-5.57153,6.668,23.09416,23.09416,0,0,1-12.58105,3.33015q-10.32207,0-16.12467-5.99388-5.81082-5.9919-5.8072-16.19874,0-10.77168,6.01875-17.42619,6.02232-6.66123,16.9892-6.65844,11.6998,0,16.39378,8.9889a15.23976,15.23976,0,0,1,5.17075-2.26536,19.623,19.623,0,0,0-7.15971-8.16932A26.17228,26.17228,0,0,0,160.422,61.27674q-13.55046,0-21.12662,8.10226-7.57815,8.1031-7.58091,21.20059,0,12.42621,7.41764,19.91568,7.41667,7.4913,20.1062,7.49134a28.24136,28.24136,0,0,0,15.48268-4.10756,20.60613,20.60613,0,0,0,7.67553-9.13636,15.18556,15.18556,0,0,1-5.11328-1.96858" transform="translate(-4.29036 -3.47571)" style="fill: #45697d"/>
  <path d="M174.74879,84.92279a4.76915,4.76915,0,0,0-3.91474-1.73884,5.26145,5.26145,0,0,0-4.02971,1.61432,5.97048,5.97048,0,0,0-1.50659,4.24552,6.42161,6.42161,0,0,0,1.334,4.34316,5.14326,5.14326,0,0,0,4.17826,1.6813,4.82508,4.82508,0,0,0,3.96662-1.73493,6.56025,6.56025,0,0,0,1.30435-4.23208,6.39365,6.39365,0,0,0-1.33218-4.17845m-4.04642,11.463a6.05841,6.05841,0,0,1-5.40462-2.68676V100.593h-1.384V82.17475h1.384V84.557a6.03657,6.03657,0,0,1,5.37679-2.69049,6.42421,6.42421,0,0,1,5.05391,2.04515,7.58432,7.58432,0,0,1,1.70693,5.16087,7.72222,7.72222,0,0,1-1.7626,5.32548,6.29986,6.29986,0,0,1-4.97041,1.9878" transform="translate(-4.29036 -3.47571)" style="fill: #80a1b6;stroke: #80a1b6;stroke-width: 0.125px"/>
  <path d="M189.24822,84.80975a5.31542,5.31542,0,0,0-4.15594-1.6258,4.92527,4.92527,0,0,0-3.96479,1.74071,6.345,6.345,0,0,0-1.3285,4.14786,6.17133,6.17133,0,0,0,1.3285,4.121,4.89672,4.89672,0,0,0,3.96479,1.6814,5.18235,5.18235,0,0,0,4.0335-1.6565,5.9118,5.9118,0,0,0,1.50839-4.14589,6.21645,6.21645,0,0,0-1.386-4.26277m1.386,11.10111V93.44245a6.15456,6.15456,0,0,1-5.51033,2.74991,6.26481,6.26481,0,0,1-4.97043-2.07388,8.36122,8.36122,0,0,1,.02783-10.17615,6.34972,6.34972,0,0,1,5.04831-2.072,6.0311,6.0311,0,0,1,5.40462,2.65794V81.92581h1.384V95.91086Z" transform="translate(-4.29036 -3.47571)" style="fill: #80a1b6;stroke: #80a1b6;stroke-width: 0.125px"/>
  <path d="M196.93115,85.42833A9.32837,9.32837,0,0,0,195.73633,90.39v5.49021h-1.384V81.87032h1.384v2.633a5.4572,5.4572,0,0,1,1.02973-1.15087,7.228,7.228,0,0,1,4.75335-1.48217v1.31559a5.0104,5.0104,0,0,0-4.58826,2.24242" transform="translate(-4.29036 -3.47571)" style="fill: #80a1b6;stroke: #80a1b6;stroke-width: 0.125px"/>
  <polygon points="202.253 79.71 202.253 92.406 200.921 92.406 200.865 79.71 198.181 79.71 198.181 78.391 200.865 78.391 200.865 75.197 202.253 75.197 202.253 78.391 204.994 78.391 204.994 79.71 202.253 79.71" style="fill: #80a1b6;stroke: #80a1b6;stroke-width: 0.125px"/>
  <path d="M220.7814,95.88018v-8.941a3.57858,3.57858,0,0,0-1.14094-2.82844,4.62127,4.62127,0,0,0-3.04093-.92487,4.72747,4.72747,0,0,0-3.59748,1.38637,5.05677,5.05677,0,0,0-1.31914,3.6289v7.679h-1.38226V81.87032h1.38226v2.183a5.62029,5.62029,0,0,1,4.89059-2.183,6.25246,6.25246,0,0,1,3.9371,1.17577,4.355,4.355,0,0,1,1.65495,3.64419v9.1899Z" transform="translate(-4.29036 -3.47571)" style="fill: #80a1b6;stroke: #80a1b6;stroke-width: 0.125px"/>
  <path d="M230.5405,83.18591a5.41218,5.41218,0,0,0-3.78309,1.34431,5.55565,5.55565,0,0,0-1.72545,3.70164h10.86111a5.24121,5.24121,0,0,0-1.59-3.70164,5.3288,5.3288,0,0,0-3.76258-1.34431m-5.53818,6.36341q.26988,5.32554,5.46019,5.32559,3.93528,0,5.18386-3.3378H237.062a5.94028,5.94028,0,0,1-2.6902,3.69969,7.81475,7.81475,0,0,1-3.96491.95556,6.48086,6.48086,0,0,1-5.10587-1.99348,7.40886,7.40886,0,0,1-1.65307-5.12636,7.27224,7.27224,0,0,1,1.88314-5.21451,6.59027,6.59027,0,0,1,5.00945-1.98769,6.89155,6.89155,0,0,1,4.99824,1.80582,6.43483,6.43483,0,0,1,1.87383,4.864v.97861Z" transform="translate(-4.29036 -3.47571)" style="fill: #80a1b6;stroke: #80a1b6;stroke-width: 0.125px"/>
  <path d="M241.65391,85.42833A9.31119,9.31119,0,0,0,240.4628,90.39v5.49021h-1.38595V81.87032h1.38595v2.633a5.45936,5.45936,0,0,1,1.02972-1.15087,7.21764,7.21764,0,0,1,4.75335-1.48217v1.31559a5.01857,5.01857,0,0,0-4.592,2.24242" transform="translate(-4.29036 -3.47571)" style="fill: #80a1b6;stroke: #80a1b6;stroke-width: 0.125px"/>
  <path d="M252.29977,96.24785q-6.053,0-6.0539-5.607h1.43971a4.16416,4.16416,0,0,0,1.11133,3.22485,5.16181,5.16181,0,0,0,3.53069,1.0092,5.977,5.977,0,0,0,2.6865-.5324,2.23411,2.23411,0,0,0,1.30434-2.07584q0-1.68041-2.71432-2.32477c-.12623-.0402-1.03163-.1857-2.71623-.44808q-4.06875-.64916-4.07064-3.64419a3.4863,3.4863,0,0,1,1.62533-3.06013,5.8834,5.8834,0,0,1,3.397-.95173q5.83595,0,5.84064,4.99233h-1.46942a3.45453,3.45453,0,0,0-1.00372-2.76334,4.982,4.982,0,0,0-3.23384-.85213,4.83872,4.83872,0,0,0-2.5251.61662,2.25227,2.25227,0,0,0-1.193,2.01838c0,1.12028.88683,1.8422,2.66054,2.15428q.70689.14074,2.87572.53621,3.96863.70093,3.96672,3.72655a3.41911,3.41911,0,0,1-1.79043,3.1674,7.38069,7.38069,0,0,1-3.668.81378" transform="translate(-4.29036 -3.47571)" style="fill: #80a1b6;stroke: #80a1b6;stroke-width: 0.125px"/>
</svg>
